<svg width="20" height="20" viewBox="0 0 20 20" fill="none" xmlns="http://www.w3.org/2000/svg">
<path fill-rule="evenodd" clip-rule="evenodd" d="M0.000488281 8.67041C0.000488281 3.88215 3.84083 0.000488281 8.57813 0.000488281C10.8531 0.000488281 13.0348 0.913924 14.6434 2.53985C16.2521 4.16578 17.1558 6.37101 17.1558 8.67041C17.1558 13.4587 13.3154 17.3403 8.57813 17.3403C3.84083 17.3403 0.000488281 13.4587 0.000488281 8.67041ZM17.0139 15.6547L19.5685 17.7169H19.6129C20.1297 18.2393 20.1297 19.0863 19.6129 19.6087C19.096 20.1311 18.2581 20.1311 17.7412 19.6087L15.6212 17.1789C15.4208 16.9771 15.3081 16.7028 15.3081 16.4168C15.3081 16.1308 15.4208 15.8566 15.6212 15.6547C16.0077 15.2708 16.6273 15.2708 17.0139 15.6547Z" fill="#6E9CFD"/>
</svg>
